# This file uses centimeters as units for non-parametric coordinates.

mtllib Lkenn.mtl
g default
v -0.100061 -0.544905 0.104004
v -0.131353 -0.516472 -0.120279
v 0.102814 -0.425983 -0.187786
v 0.164676 -0.486134 0.067951
v -0.022963 -0.446944 -0.239300
v 0.191587 -0.445854 -0.064871
v 0.032723 -0.515145 0.167017
v -0.008337 -0.170424 0.207299
v 0.198856 -0.102550 -0.065240
v -0.035163 -0.112396 -0.275094
v 0.160747 -0.133068 0.090870
v 0.096113 -0.091623 -0.205935
v -0.154265 -0.171488 -0.134381
v -0.144080 -0.202322 0.132254
v 0.160699 -0.764909 0.049175
v -0.075894 -0.836765 0.071196
v 0.008028 -0.764245 -0.214305
v 0.193820 -0.740971 -0.067390
v 0.053658 -0.786371 0.122328
v -0.105908 -0.834715 -0.111528
v 0.137821 -0.725846 -0.173797
v -0.022334 -0.062450 0.202385
v 0.145160 -0.019434 0.092432
v 0.193505 -0.003572 -0.065338
v 0.107763 -0.000623 -0.206604
v -0.027217 -0.026822 -0.282964
v -0.159599 -0.105841 -0.135861
v -0.161029 -0.121508 0.127772
v 0.047655 -0.690232 0.132079
v 0.156849 -0.669748 0.053065
v 0.188626 -0.641683 -0.066583
v 0.124906 -0.625499 -0.176220
v -0.002790 -0.659214 -0.219139
v -0.111939 -0.728367 -0.113167
v -0.078686 -0.734312 0.078408
v -0.140489 -0.548120 -0.003547
v -0.083764 -0.188944 0.209220
v -0.087296 -0.474550 -0.210696
v 0.150660 -0.430694 -0.132451
v 0.035919 -0.098478 -0.253049
v 0.099498 -0.503335 0.122277
v 0.213325 -0.117306 0.014311
v -0.173007 -0.200017 0.007390
v -0.034260 -0.527143 0.171238
v -0.103201 -0.135895 -0.244672
v 0.149174 -0.092692 -0.140937
v 0.045716 -0.431480 -0.225270
v 0.075426 -0.150539 0.157509
v 0.203593 -0.466116 0.005186
v 0.012761 -0.321684 0.200854
v 0.196923 -0.237978 -0.063881
v -0.038439 -0.230362 -0.262160
v 0.170526 -0.283947 0.083873
v 0.087798 -0.217842 -0.200391
v -0.150134 -0.297891 -0.128729
v -0.126399 -0.342818 0.128461
v 0.055976 -1.039750 0.124459
v 0.168046 -1.017120 0.050382
v 0.201509 -0.993789 -0.067656
v 0.145160 -0.977454 -0.175407
v 0.013191 -1.013876 -0.216428
v -0.103759 -1.082735 -0.112352
v -0.076871 -1.088278 0.072681
v 0.113747 -0.772749 0.091214
v 0.189170 -0.756449 -0.003717
v -0.114845 -0.853194 -0.012877
v -0.012059 -0.807225 0.122370
v 0.081004 -0.737377 -0.202596
v -0.060983 -0.799131 -0.190193
v 0.176190 -0.727696 -0.128523
v 0.063548 -0.034725 0.157568
v -0.112994 -0.087794 0.212462
v 0.196985 -0.010931 0.015342
v 0.156503 0.000560 -0.141892
v 0.046714 -0.009093 -0.255090
v -0.108981 -0.053761 -0.269934
v -0.179266 -0.124378 0.008192
v 0.106286 -0.679314 0.097821
v -0.015263 -0.707050 0.133166
v 0.188058 -0.658287 -0.001850
v 0.165321 -0.628048 -0.128813
v 0.068497 -0.635424 -0.206948
v -0.069440 -0.691864 -0.194107
v -0.118837 -0.749068 -0.010826
v -0.163860 -0.336415 0.004134
v -0.060082 -0.332707 0.206588
v -0.102551 -0.253717 -0.230652
v 0.142010 -0.223089 -0.137229
v 0.029308 -0.220760 -0.244868
v 0.090255 -0.306510 0.147776
v 0.217955 -0.259326 0.012277
v 0.119802 -1.024776 0.092952
v -0.013044 -1.061199 0.124502
v 0.196639 -1.009288 -0.003178
v 0.183927 -0.980037 -0.129562
v 0.087488 -0.988060 -0.204570
v -0.057351 -1.047802 -0.192011
v -0.114208 -1.101839 -0.012454
vt 0.853732 0.915055
vt 0.853732 0.915055
vt 0.853732 0.915055
vt 0.853732 0.915055
vt 0.971134 0.544383
vt 0.971134 0.544383
vt 0.971134 0.544383
vt 0.971134 0.544383
vt 0.971134 0.544383
vt 0.971134 0.544383
vt 0.853732 0.915055
vt 0.853732 0.915055
vt 0.971134 0.544383
vt 0.971134 0.544383
vt 0.853732 0.915055
vt 0.853732 0.915055
vt 0.853732 0.915055
vt 0.853732 0.915055
vt 0.853732 0.915055
vt 0.853732 0.915055
vt 0.971134 0.544383
vt 0.853732 0.915055
vt 0.853732 0.915055
vt 0.853732 0.915055
vt 0.853732 0.915055
vt 0.853732 0.915055
vt 0.853732 0.915055
vt 0.853732 0.915055
vt 0.853732 0.915055
vt 0.853732 0.915055
vt 0.853732 0.915055
vt 0.853732 0.915055
vt 0.853732 0.915055
vt 0.853732 0.915055
vt 0.853732 0.915055
vt 0.853732 0.915055
vt 0.853732 0.915055
vt 0.853732 0.915055
vt 0.853732 0.915055
vt 0.853732 0.915055
vt 0.853732 0.915055
vt 0.853732 0.915055
vt 0.853732 0.915055
vt 0.853732 0.915055
vt 0.853732 0.915055
vt 0.853732 0.915055
vt 0.853732 0.915055
vt 0.853732 0.915055
vt 0.853732 0.915055
vt 0.853732 0.915055
vt 0.853732 0.915055
vt 0.853732 0.915055
vt 0.853732 0.915055
vt 0.853732 0.915055
vt 0.853732 0.915055
vt 0.853732 0.915055
vt 0.853732 0.915055
vt 0.853732 0.915055
vt 0.853732 0.915055
vt 0.853732 0.915055
vt 0.871156 0.814724
vt 0.871156 0.814724
vt 0.871156 0.814724
vt 0.871156 0.814724
vt 0.871156 0.814724
vt 0.871156 0.814724
vt 0.853732 0.915055
vt 0.853732 0.915055
vt 0.853732 0.915055
vt 0.853732 0.915055
vt 0.853732 0.915055
vt 0.871156 0.814724
vt 0.871156 0.814724
vt 0.853732 0.915055
vt 0.853732 0.915055
vt 0.971134 0.544383
vt 0.971134 0.544383
vt 0.971134 0.544383
vt 0.971134 0.544383
vt 0.871156 0.814724
vt 0.871156 0.814724
vt 0.853732 0.915055
vt 0.853732 0.915055
vt 0.853732 0.915055
vt 0.971134 0.544383
vt 0.971134 0.544383
vt 0.853732 0.915055
vt 0.853732 0.915055
vt 0.853732 0.915055
vt 0.853732 0.915055
vt 0.853732 0.915055
vt 0.945174 0.919496
vt 0.934572 0.919496
vt 0.934572 0.895952
vt 0.944737 0.895409
vt 0.853732 0.915055
vt 0.853732 0.915055
vt 0.971134 0.544383
vt 0.971134 0.544383
vt 0.971134 0.544383
vt 0.971134 0.544383
vt 0.853732 0.915055
vt 0.853732 0.915055
vt 0.853732 0.915055
vt 0.853732 0.915055
vt 0.853732 0.915055
vt 0.853732 0.915055
vt 0.853732 0.915055
vt 0.853732 0.915055
vt 0.853732 0.915055
vt 0.853732 0.915055
vt 0.950134 0.872529
vt 0.934572 0.872529
vt 0.934572 0.850038
vt 0.945174 0.850038
vt 0.853732 0.915055
vt 0.853732 0.915055
vt 0.971134 0.544383
vt 0.853732 0.915055
vt 0.853732 0.915055
vt 0.971134 0.544383
vt 0.853732 0.915055
vt 0.853732 0.915055
vt 0.853732 0.915055
vn -0.818485 -0.170997 0.548490
vn -0.317208 -0.205505 0.925822
vn -0.355315 -0.139106 0.924338
vn -0.860304 -0.144401 0.488902
vn -0.818485 -0.170997 0.548490
vn -0.860304 -0.144401 0.488902
vn -0.991595 -0.099999 0.082100
vn -0.984771 -0.119796 0.125996
vn -0.818485 -0.170997 0.548490
vn -0.984771 -0.119796 0.125996
vn -0.983403 -0.081300 0.162200
vn -0.788883 -0.117597 0.603187
vn -0.818485 -0.170997 0.548490
vn -0.788883 -0.117597 0.603187
vn -0.301394 -0.159997 0.939980
vn -0.317208 -0.205505 0.925822
vn -0.949102 -0.101100 -0.298301
vn -0.984771 -0.119796 0.125996
vn -0.991595 -0.099999 0.082100
vn -0.953173 -0.076498 -0.292592
vn -0.949102 -0.101100 -0.298301
vn -0.953173 -0.076498 -0.292592
vn -0.686499 -0.095000 -0.720899
vn -0.656987 -0.112998 -0.745385
vn -0.949102 -0.101100 -0.298301
vn -0.656987 -0.112998 -0.745385
vn -0.635424 -0.093104 -0.766530
vn -0.950088 -0.081699 -0.301096
vn -0.949102 -0.101100 -0.298301
vn -0.950088 -0.081699 -0.301096
vn -0.983403 -0.081300 0.162200
vn -0.984771 -0.119796 0.125996
vn 0.658893 0.008200 -0.752192
vn 0.389686 -0.044598 -0.919867
vn 0.430784 -0.070897 -0.899666
vn 0.680623 -0.040301 -0.731525
vn 0.658893 0.008200 -0.752192
vn 0.680623 -0.040301 -0.731525
vn 0.791300 -0.022900 -0.611000
vn 0.811897 0.021700 -0.583398
vn 0.658893 0.008200 -0.752192
vn 0.811897 0.021700 -0.583398
vn 0.852171 0.056698 -0.520182
vn 0.635290 0.036999 -0.771387
vn 0.658893 0.008200 -0.752192
vn 0.635290 0.036999 -0.771387
vn 0.343396 -0.019400 -0.938990
vn 0.389686 -0.044598 -0.919867
vn 0.764526 -0.079103 0.639721
vn 0.979775 -0.063698 0.189695
vn 0.984447 -0.019401 0.174608
vn 0.745412 -0.030400 0.665911
vn 0.764526 -0.079103 0.639721
vn 0.745412 -0.030400 0.665911
vn 0.592491 -0.033300 0.804888
vn 0.604996 -0.086699 0.791494
vn 0.764526 -0.079103 0.639721
vn 0.604996 -0.086699 0.791494
vn 0.592800 -0.058800 0.803200
vn 0.776922 -0.040101 0.628318
vn 0.764526 -0.079103 0.639721
vn 0.776922 -0.040101 0.628318
vn 0.968570 -0.022799 0.247692
vn 0.979775 -0.063698 0.189695
vn -0.078000 -0.098201 -0.992105
vn -0.656987 -0.112998 -0.745385
vn -0.686499 -0.095000 -0.720899
vn -0.078196 -0.102495 -0.991655
vn -0.078000 -0.098201 -0.992105
vn -0.078196 -0.102495 -0.991655
vn 0.430784 -0.070897 -0.899666
vn 0.389686 -0.044598 -0.919867
vn -0.078000 -0.098201 -0.992105
vn 0.389686 -0.044598 -0.919867
vn 0.343396 -0.019400 -0.938990
vn -0.072900 -0.071100 -0.994802
vn -0.078000 -0.098201 -0.992105
vn -0.072900 -0.071100 -0.994802
vn -0.635424 -0.093104 -0.766530
vn -0.656987 -0.112998 -0.745385
vn 0.940094 -0.014700 -0.340598
vn 0.811897 0.021700 -0.583398
vn 0.791300 -0.022900 -0.611000
vn 0.914872 -0.014400 -0.403488
vn 0.940094 -0.014700 -0.340598
vn 0.914872 -0.014400 -0.403488
vn 0.984447 -0.019401 0.174608
vn 0.979775 -0.063698 0.189695
vn 0.940094 -0.014700 -0.340598
vn 0.979775 -0.063698 0.189695
vn 0.968570 -0.022799 0.247692
vn 0.979195 0.021300 -0.201799
vn 0.940094 -0.014700 -0.340598
vn 0.979195 0.021300 -0.201799
vn 0.852171 0.056698 -0.520182
vn 0.811897 0.021700 -0.583398
vn 0.334884 -0.140293 0.931757
vn 0.604996 -0.086699 0.791494
vn 0.592491 -0.033300 0.804888
vn 0.324800 -0.064200 0.943601
vn 0.334884 -0.140293 0.931757
vn 0.324800 -0.064200 0.943601
vn -0.355315 -0.139106 0.924338
vn -0.317208 -0.205505 0.925822
vn 0.334884 -0.140293 0.931757
vn -0.317208 -0.205505 0.925822
vn -0.301394 -0.159997 0.939980
vn 0.302003 -0.116101 0.946211
vn 0.334884 -0.140293 0.931757
vn 0.302003 -0.116101 0.946211
vn 0.592800 -0.058800 0.803200
vn 0.604996 -0.086699 0.791494
vn 0.288711 0.023101 0.957138
vn 0.558521 0.041902 0.828431
vn 0.545111 0.054101 0.836617
vn 0.341700 -0.036500 0.939100
vn 0.288711 0.023101 0.957138
vn 0.341700 -0.036500 0.939100
vn -0.092405 -0.456426 0.884950
vn -0.389399 -0.088600 0.916798
vn 0.288711 0.023101 0.957138
vn -0.389399 -0.088600 0.916798
vn -0.355315 -0.139106 0.924338
vn 0.324800 -0.064200 0.943601
vn 0.288711 0.023101 0.957138
vn 0.324800 -0.064200 0.943601
vn 0.592491 -0.033300 0.804888
vn 0.558521 0.041902 0.828431
vn 0.935313 0.019100 -0.353305
vn 0.810404 -0.051500 -0.583603
vn 0.852717 0.028201 -0.521611
vn 0.962087 0.104099 -0.252097
vn 0.935313 0.019100 -0.353305
vn 0.962087 0.104099 -0.252097
vn 0.954617 0.139202 0.263305
vn 0.974471 0.065998 0.214594
vn 0.935313 0.019100 -0.353305
vn 0.974471 0.065998 0.214594
vn 0.984447 -0.019401 0.174608
vn 0.914872 -0.014400 -0.403488
vn 0.935313 0.019100 -0.353305
vn 0.914872 -0.014400 -0.403488
vn 0.791300 -0.022900 -0.611000
vn 0.810404 -0.051500 -0.583603
vn 0.009000 -0.130403 -0.991420
vn -0.667977 -0.132595 -0.732274
vn -0.419802 -0.308702 -0.853504
vn 0.170694 -0.120996 -0.977867
vn 0.009000 -0.130403 -0.991420
vn 0.170694 -0.120996 -0.977867
vn 0.513489 -0.043699 -0.856983
vn 0.471419 -0.089704 -0.877335
vn 0.009000 -0.130403 -0.991420
vn 0.471419 -0.089704 -0.877335
vn 0.430784 -0.070897 -0.899666
vn -0.078196 -0.102495 -0.991655
vn 0.009000 -0.130403 -0.991420
vn -0.078196 -0.102495 -0.991655
vn -0.686499 -0.095000 -0.720899
vn -0.667977 -0.132595 -0.732274
vn 0.726731 0.052302 0.684929
vn 0.974471 0.065998 0.214594
vn 0.954617 0.139202 0.263305
vn 0.728394 0.093899 0.678694
vn 0.726731 0.052302 0.684929
vn 0.728394 0.093899 0.678694
vn 0.545111 0.054101 0.836617
vn 0.558521 0.041902 0.828431
vn 0.726731 0.052302 0.684929
vn 0.558521 0.041902 0.828431
vn 0.592491 -0.033300 0.804888
vn 0.745412 -0.030400 0.665911
vn 0.726731 0.052302 0.684929
vn 0.745412 -0.030400 0.665911
vn 0.984447 -0.019401 0.174608
vn 0.974471 0.065998 0.214594
vn 0.698605 -0.081901 -0.710805
vn 0.471419 -0.089704 -0.877335
vn 0.513489 -0.043699 -0.856983
vn 0.723504 -0.017300 -0.690104
vn 0.698605 -0.081901 -0.710805
vn 0.723504 -0.017300 -0.690104
vn 0.852717 0.028201 -0.521611
vn 0.810404 -0.051500 -0.583603
vn 0.698605 -0.081901 -0.710805
vn 0.810404 -0.051500 -0.583603
vn 0.791300 -0.022900 -0.611000
vn 0.680623 -0.040301 -0.731525
vn 0.698605 -0.081901 -0.710805
vn 0.680623 -0.040301 -0.731525
vn 0.430784 -0.070897 -0.899666
vn 0.471419 -0.089704 -0.877335
vn -0.953464 -0.080397 -0.290589
vn -0.994629 -0.094103 0.043101
vn -0.943476 -0.331292 -0.009900
vn -0.891601 -0.325400 -0.314900
vn -0.953464 -0.080397 -0.290589
vn -0.891601 -0.325400 -0.314900
vn -0.419802 -0.308702 -0.853504
vn -0.667977 -0.132595 -0.732274
vn -0.953464 -0.080397 -0.290589
vn -0.667977 -0.132595 -0.732274
vn -0.686499 -0.095000 -0.720899
vn -0.953173 -0.076498 -0.292592
vn -0.953464 -0.080397 -0.290589
vn -0.953173 -0.076498 -0.292592
vn -0.991595 -0.099999 0.082100
vn -0.994629 -0.094103 0.043101
vn -0.889148 -0.143692 0.434475
vn -0.389399 -0.088600 0.916798
vn -0.092405 -0.456426 0.884950
vn -0.789301 -0.503300 0.351700
vn -0.889148 -0.143692 0.434475
vn -0.789301 -0.503300 0.351700
vn -0.943476 -0.331292 -0.009900
vn -0.994629 -0.094103 0.043101
vn -0.889148 -0.143692 0.434475
vn -0.994629 -0.094103 0.043101
vn -0.991595 -0.099999 0.082100
vn -0.860304 -0.144401 0.488902
vn -0.889148 -0.143692 0.434475
vn -0.860304 -0.144401 0.488902
vn -0.355315 -0.139106 0.924338
vn -0.389399 -0.088600 0.916798
vn 0.776843 0.057803 0.627035
vn 0.953947 0.076396 0.290084
vn 0.968570 -0.022799 0.247692
vn 0.776922 -0.040101 0.628318
vn 0.776843 0.057803 0.627035
vn 0.776922 -0.040101 0.628318
vn 0.592800 -0.058800 0.803200
vn 0.567783 0.028799 0.822675
vn 0.776843 0.057803 0.627035
vn 0.567783 0.028799 0.822675
vn 0.554411 0.056601 0.830316
vn 0.777706 0.073601 0.624305
vn 0.776843 0.057803 0.627035
vn 0.777706 0.073601 0.624305
vn 0.951090 0.088399 0.295997
vn 0.953947 0.076396 0.290084
vn -0.792063 -0.018099 0.610171
vn -0.326309 -0.031901 0.944725
vn -0.301394 -0.159997 0.939980
vn -0.788883 -0.117597 0.603187
vn -0.792063 -0.018099 0.610171
vn -0.788883 -0.117597 0.603187
vn -0.983403 -0.081300 0.162200
vn -0.986164 -0.026799 0.163594
vn -0.792063 -0.018099 0.610171
vn -0.986164 -0.026799 0.163594
vn -0.981485 -0.114698 0.153398
vn -0.793687 -0.065499 0.604790
vn -0.792063 -0.018099 0.610171
vn -0.793687 -0.065499 0.604790
vn -0.349094 0.002100 0.937085
vn -0.326309 -0.031901 0.944725
vn -0.085202 -0.009400 -0.996319
vn -0.634390 -0.041699 -0.771888
vn -0.635424 -0.093104 -0.766530
vn -0.072900 -0.071100 -0.994802
vn -0.085202 -0.009400 -0.996319
vn -0.072900 -0.071100 -0.994802
vn 0.343396 -0.019400 -0.938990
vn 0.308482 0.033398 -0.950644
vn -0.085202 -0.009400 -0.996319
vn 0.308482 0.033398 -0.950644
vn 0.297602 0.051400 -0.953305
vn -0.091196 0.018499 -0.995661
vn -0.085202 -0.009400 -0.996319
vn -0.091196 0.018499 -0.995661
vn -0.629499 -0.030600 -0.776399
vn -0.634390 -0.041699 -0.771888
vn 0.990603 0.093300 -0.100000
vn 0.877508 0.103301 -0.468304
vn 0.852171 0.056698 -0.520182
vn 0.979195 0.021300 -0.201799
vn 0.990603 0.093300 -0.100000
vn 0.979195 0.021300 -0.201799
vn 0.968570 -0.022799 0.247692
vn 0.953947 0.076396 0.290084
vn 0.990603 0.093300 -0.100000
vn 0.953947 0.076396 0.290084
vn 0.951090 0.088399 0.295997
vn 0.992157 0.099996 -0.074997
vn 0.990603 0.093300 -0.100000
vn 0.992157 0.099996 -0.074997
vn 0.885290 0.100299 -0.454095
vn 0.877508 0.103301 -0.468304
vn 0.250690 -0.014199 0.967963
vn 0.567783 0.028799 0.822675
vn 0.592800 -0.058800 0.803200
vn 0.302003 -0.116101 0.946211
vn 0.250690 -0.014199 0.967963
vn 0.302003 -0.116101 0.946211
vn -0.301394 -0.159997 0.939980
vn -0.326309 -0.031901 0.944725
vn 0.250690 -0.014199 0.967963
vn -0.326309 -0.031901 0.944725
vn -0.349094 0.002100 0.937085
vn 0.220306 0.037101 0.974725
vn 0.250690 -0.014199 0.967963
vn 0.220306 0.037101 0.974725
vn 0.554411 0.056601 0.830316
vn 0.567783 0.028799 0.822675
vn -0.950709 -0.044300 -0.306903
vn -0.986164 -0.026799 0.163594
vn -0.983403 -0.081300 0.162200
vn -0.950088 -0.081699 -0.301096
vn -0.950709 -0.044300 -0.306903
vn -0.950088 -0.081699 -0.301096
vn -0.635424 -0.093104 -0.766530
vn -0.634390 -0.041699 -0.771888
vn -0.950709 -0.044300 -0.306903
vn -0.634390 -0.041699 -0.771888
vn -0.629499 -0.030600 -0.776399
vn -0.944932 -0.086203 -0.315711
vn -0.950709 -0.044300 -0.306903
vn -0.944932 -0.086203 -0.315711
vn -0.981485 -0.114698 0.153398
vn -0.986164 -0.026799 0.163594
vn 0.619601 0.078300 -0.781002
vn 0.308482 0.033398 -0.950644
vn 0.343396 -0.019400 -0.938990
vn 0.635290 0.036999 -0.771387
vn 0.619601 0.078300 -0.781002
vn 0.635290 0.036999 -0.771387
vn 0.852171 0.056698 -0.520182
vn 0.877508 0.103301 -0.468304
vn 0.619601 0.078300 -0.781002
vn 0.877508 0.103301 -0.468304
vn 0.885290 0.100299 -0.454095
vn 0.616519 0.080402 -0.783224
vn 0.619601 0.078300 -0.781002
vn 0.616519 0.080402 -0.783224
vn 0.297602 0.051400 -0.953305
vn 0.308482 0.033398 -0.950644
s off
g rkenn1:L2_Madara_torso_Plane_011_Blender_Render_Madara_Material
usemtl rkenn1:Blender_Render_Madara_Material
f 1/1/1 44/2/2 86/3/3 56/4/4
f 1/5/5 56/6/6 85/7/7 36/8/8
f 1/5/9 36/8/10 84/9/11 35/10/12
f 1/1/13 35/11/14 79/12/15 44/2/16
f 2/13/17 36/8/18 85/7/19 55/14/20
f 2/15/21 55/16/22 87/17/23 38/18/24
f 2/15/25 38/18/26 83/19/27 34/20/28
f 2/13/29 34/21/30 84/9/31 36/8/32
f 3/22/33 47/23/34 89/24/35 54/25/36
f 3/22/37 54/25/38 88/26/39 39/27/40
f 3/22/41 39/27/42 81/28/43 32/29/44
f 3/22/45 32/29/46 82/30/47 47/23/48
f 4/31/49 49/32/50 91/33/51 53/34/52
f 4/31/53 53/34/54 90/35/55 41/36/56
f 4/31/57 41/36/58 78/37/59 30/38/60
f 4/31/61 30/38/62 80/39/63 49/32/64
f 5/40/65 38/18/66 87/17/67 52/41/68
f 5/40/69 52/41/70 89/24/71 47/23/72
f 5/40/73 47/23/74 82/30/75 33/42/76
f 5/40/77 33/42/78 83/19/79 38/18/80
f 6/43/81 39/27/82 88/26/83 51/44/84
f 6/43/85 51/44/86 91/33/87 49/32/88
f 6/43/89 49/32/90 80/39/91 31/45/92
f 6/43/93 31/45/94 81/28/95 39/27/96
f 7/46/97 41/36/98 90/35/99 50/47/100
f 7/46/101 50/47/102 86/3/103 44/2/104
f 7/46/105 44/2/106 79/12/107 29/48/108
f 7/46/109 29/48/110 78/37/111 41/36/112
f 8/49/113 48/50/114 71/51/115 22/52/116
f 8/49/117 22/52/118 72/53/119 37/54/120
f 8/49/121 37/54/122 86/3/123 50/47/124
f 8/49/125 50/47/126 90/35/127 48/50/128
f 9/55/129 46/56/130 74/57/131 24/58/132
f 9/55/133 24/58/134 73/59/135 42/60/136
f 9/55/137 42/60/138 91/33/139 51/44/140
f 9/55/141 51/44/142 88/26/143 46/56/144
f 10/61/145 45/62/146 76/63/147 26/64/148
f 10/61/149 26/64/150 75/65/151 40/66/152
f 10/67/153 40/68/154 89/24/155 52/41/156
f 10/67/157 52/41/158 87/17/159 45/69/160
f 11/70/161 42/60/162 73/59/163 23/71/164
f 11/70/165 23/71/166 71/51/167 48/50/168
f 11/70/169 48/50/170 90/35/171 53/34/172
f 11/70/173 53/34/174 91/33/175 42/60/176
f 12/72/177 40/66/178 75/65/179 25/73/180
f 12/74/181 25/75/182 74/57/183 46/56/184
f 12/74/185 46/56/186 88/26/187 54/25/188
f 12/74/189 54/25/190 89/24/191 40/68/192
f 13/76/193 43/77/194 77/78/195 27/79/196
f 13/80/197 27/81/198 76/63/199 45/62/200
f 13/82/201 45/69/202 87/17/203 55/16/204
f 13/76/205 55/14/206 85/7/207 43/77/208
f 14/83/209 37/54/210 72/53/211 28/84/212
f 14/85/213 28/86/214 77/78/215 43/77/216
f 14/85/217 43/77/218 85/7/219 56/6/220
f 14/83/221 56/4/222 86/3/223 37/54/224
f 15/87/225 65/88/226 80/39/227 30/38/228
f 15/87/229 30/38/230 78/37/231 64/89/232
f 15/87/233 64/89/234 92/90/235 58/91/236
f 15/92/237 58/93/238 94/94/239 65/95/240
f 16/96/241 67/97/242 79/12/243 35/11/244
f 16/98/245 35/10/246 84/9/247 66/99/248
f 16/98/249 66/99/250 98/100/251 63/101/252
f 16/96/253 63/102/254 93/103/255 67/97/256
f 17/104/257 69/105/258 83/19/259 33/42/260
f 17/104/261 33/42/262 82/30/263 68/106/264
f 17/104/265 68/106/266 96/107/267 61/108/268
f 17/104/269 61/108/270 97/109/271 69/105/272
f 18/110/273 70/111/274 81/28/275 31/45/276
f 18/110/277 31/45/278 80/39/279 65/88/280
f 18/112/281 65/95/282 94/94/283 59/113/284
f 18/112/285 59/113/286 95/114/287 70/115/288
f 19/116/289 64/89/290 78/37/291 29/48/292
f 19/116/293 29/48/294 79/12/295 67/97/296
f 19/116/297 67/97/298 93/103/299 57/117/300
f 19/116/301 57/117/302 92/90/303 64/89/304
f 20/118/305 66/99/306 84/9/307 34/21/308
f 20/119/309 34/20/310 83/19/311 69/105/312
f 20/119/313 69/105/314 97/109/315 62/120/316
f 20/118/317 62/121/318 98/100/319 66/99/320
f 21/122/321 68/106/322 82/30/323 32/29/324
f 21/122/325 32/29/326 81/28/327 70/111/328
f 21/122/329 70/111/330 95/123/331 60/124/332
f 21/122/333 60/124/334 96/107/335 68/106/336
